Coordinates
version=1
nRows=17
nColumns=36
inDegrees=yes

Units are S.I. units (second, meters, Newtons, ...)
If the header above contains a line with 'inDegrees', this indicates whether rotational values are in degrees (yes) or radians (no).

endheader
time	pelvis_tilt	pelvis_list	pelvis_rotation	pelvis_tx	pelvis_ty	pelvis_tz	hip_flexion_r	hip_adduction_r	hip_rotation_r	knee_angle_r	knee_angle_r_beta	ankle_angle_r	subtalar_angle_r	mtp_angle_r	hip_flexion_l	hip_adduction_l	hip_rotation_l	knee_angle_l	knee_angle_l_beta	ankle_angle_l	subtalar_angle_l	mtp_angle_l	lumbar_extension	lumbar_bending	lumbar_rotation	arm_flex_r	arm_add_r	arm_rot_r	elbow_flex_r	pro_sup_r	arm_flex_l	arm_add_l	arm_rot_l	elbow_flex_l	pro_sup_l
      1.36666670	     -6.72349897	      2.99439108	     -2.34802085	      0.41660539	      1.19550804	     -0.27701733	     12.31351296	     -5.33056230	     -4.96839100	     21.80924503	      0.38064313	     30.77555999	     -4.51163601	     -7.49999987	     10.16124207	      0.63968235	     -8.11706870	     19.26542651	      0.33624512	     25.63191066	     12.46681848	     -7.49999987	    -12.98211760	     -2.99948644	     -0.74843316	     -6.47955454	    -16.58140624	     30.01657078	     14.83883046	     98.95596988	    -12.72500328	    -13.37903613	     16.25181673	     11.78853885	     96.23386199
      1.38333330	     -8.55729381	      2.90186886	     -2.27538190	      0.41696537	      1.18936254	     -0.27739071	     16.44121999	     -5.26015760	     -3.31992290	     25.72276591	      0.44894696	     31.55027081	     -6.07207516	     -7.49999987	     14.54792090	      0.16856389	     -7.63716678	     23.28502304	      0.40640032	     27.50322988	     11.73281749	     -7.49999987	    -14.50916386	     -2.99509012	      0.12398440	     -9.65971850	    -17.97631492	     33.26448542	     18.33844811	     98.16503868	    -14.28335232	    -14.04486546	     20.59490438	     13.09683352	     96.77542558
      1.40000000	    -10.23559419	      2.92931566	     -2.30883086	      0.42034107	      1.18570817	     -0.27682616	     20.54394576	     -5.21394249	     -1.67735938	     29.68645208	      0.51812633	     32.51570615	     -6.93717558	     -7.49999987	     18.74019862	     -0.03896244	     -6.96614532	     27.28461498	      0.47620637	     29.13863148	     10.69318328	     -7.49999987	    -16.07521015	     -3.05898678	      1.15758500	    -12.29105112	    -18.94920792	     38.56356079	     20.81091389	     90.52367802	    -15.33308743	    -14.93515944	     33.03814076	     13.72358993	     90.20455524
      1.41666670	    -11.65006661	      2.95898513	     -2.33752654	      0.42037522	      1.17886604	     -0.27689018	     24.41179944	     -5.11501634	     -0.30356410	     33.62089633	      0.58679534	     33.90311998	     -6.92762559	     -7.49999987	     22.63787752	     -0.10797221	     -6.04245746	     31.24200919	      0.54527593	     30.97128745	      9.59961044	     -7.49999987	    -17.96986637	     -3.17896621	      1.99762717	    -14.30230057	    -19.85709216	     42.18709216	     22.77606218	     86.55726258	    -16.03257239	    -15.85752537	     43.80712920	     15.00449981	     84.20575109
      1.43333330	    -12.91982980	      2.99617645	     -2.59398204	      0.42790098	      1.16330103	     -0.27401072	     28.35040559	     -4.86759021	      0.96726966	     38.00673117	      0.66334260	     35.87282274	     -5.92015944	     -7.49999987	     26.56760502	     -0.10923412	     -4.92651534	     35.37582087	      0.61742455	     33.32856474	      8.40296975	     -7.49999987	    -19.88372570	     -3.43504387	      3.08621243	    -15.81223157	    -20.34604468	     45.49998662	     24.01635178	     82.16158686	    -15.93787014	    -17.03278365	     56.15959311	     16.53573122	     75.81760548
      1.45000000	    -14.27476286	      3.23014762	     -2.87769660	      0.42639430	      1.14971255	     -0.27406901	     32.64556107	     -4.74708248	      2.15672037	     43.03079940	      0.75102913	     38.32930297	     -4.73989887	     -7.49999987	     30.75189793	      0.06720482	     -4.17399810	     39.87903208	      0.69602041	     35.89894933	      7.24551561	     -7.49999987	    -21.72266889	     -3.86699779	      3.28151319	    -16.27356499	    -20.69932603	     46.75873997	     24.83075578	     80.92266686	    -16.56693057	    -17.24412460	     58.06518639	     17.38830329	     74.27592819
      1.46666670	    -15.10267766	      3.61177974	     -3.18244322	      0.42790341	      1.13960323	     -0.27321794	     36.01733662	     -4.54698317	      3.42629898	     47.60722206	      0.83090277	     41.10566162	     -3.75181776	     -7.49999987	     33.82949748	      0.33665500	     -3.96328104	     44.11028074	      0.76986963	     37.92315062	      6.35071804	     -7.49999987	    -23.39114961	     -4.43633052	      4.30330172	    -16.22819808	    -21.39214238	     53.21208726	     25.76598338	     73.46331887	    -13.45412574	    -19.13299954	     82.26400872	     20.35931670	     48.53576746
      1.48333330	    -16.01043216	      3.72652848	     -3.30487827	      0.42519793	      1.12898414	     -0.27383834	     39.33499070	     -4.08637757	      4.33373759	     52.23992824	      0.91175875	     44.06158800	     -2.50192792	     -7.49999987	     36.96124681	      0.41707875	     -3.54457359	     48.60207614	      0.84826625	     39.94393528	      5.55439545	     -7.49999987	    -25.08377125	     -4.66390959	      4.13803613	    -15.28180008	    -21.66120766	     55.14896878	     26.13160315	     71.52606337	    -12.51228079	    -19.35861074	     82.36130570	     20.96072173	     49.45909429
      1.50000000	    -16.75074036	      3.98450550	     -3.65999840	      0.42502706	      1.12148149	     -0.27377056	     42.19234728	     -3.60744481	      5.24373013	     56.50151462	      0.98613746	     46.72662111	     -1.44806322	     -7.49999987	     39.58425154	      0.48987212	     -3.49790958	     52.70450885	      0.91986721	     41.55702532	      4.74015432	     -7.49999987	    -26.56200303	     -5.22508685	      3.66110219	    -12.43204167	    -22.47256774	     62.57682695	     26.97902593	     63.79858782	    -10.49800770	    -19.37429392	     89.06139911	     21.99176691	     35.60748725
      1.51666670	    -17.29549926	      4.20327351	     -4.10503816	      0.43790480	      1.10549459	     -0.27460604	     44.36367057	     -3.04202956	      6.09344337	     60.45308272	      1.05510534	     48.64274861	     -0.87900843	     -7.49999987	     41.53240148	      0.61146943	     -3.46157109	     56.48138325	      0.98578610	     43.21863381	      3.86284330	     -7.49999987	    -27.95841881	     -5.66135689	      3.52785897	     -9.85719066	    -22.56639365	     62.53830793	     26.78370207	     63.70518469	     -8.68762753	    -19.15652552	     88.84949933	     21.83167374	     35.30853677
      1.53333330	    -17.89459073	      4.27274533	     -4.47182904	      0.44500472	      1.09551662	     -0.27103691	     46.11261436	     -2.31134430	      6.84056997	     63.85774083	      1.11452783	     49.33298268	     -1.50335980	     -7.49999987	     43.34860213	      0.47366840	     -3.62456682	     60.07101280	      1.04843696	     44.71912285	      3.34604725	     -7.49999987	    -28.98515045	     -6.10210996	      2.13186431	     -5.14342131	    -22.24881131	     65.64444121	     24.82230122	     60.75636194	     -7.51673931	    -18.40677179	     84.88366075	     20.63625736	     30.78056219
      1.55000000	    -18.49869996	      4.37050764	     -4.48468562	      0.44219631	      1.08786152	     -0.27082847	     47.63159762	     -1.69995870	      7.57352017	     66.89329392	      1.16750823	     49.53636761	     -2.96970200	     -7.49999987	     44.98086787	      0.28937421	     -4.06655403	     63.77021212	      1.11300017	     45.76065607	      3.14888767	     -7.49999987	    -30.52270580	     -6.15264629	      0.78741485	     -0.91215453	    -20.58789323	     60.00299138	     20.60333382	     58.07254457	     -5.55934046	    -17.53504363	     76.86348016	     18.21496794	     28.84017328
      1.56666670	    -18.81885780	      4.34962635	     -4.63430312	      0.44941480	      1.07760322	     -0.26746474	     48.47055769	     -0.96566071	      8.17101143	     69.54098227	      1.21371911	     49.63451181	     -4.61555163	     -7.49999987	     45.97492768	      0.00918300	     -4.27946752	     67.41278936	      1.17657513	     46.49459360	      2.96474655	     -7.49999987	    -31.94761337	     -6.12889451	     -0.56088945	      3.95468210	    -18.66766975	     51.25475667	     16.46398069	     60.08303308	     -4.47629461	    -13.93455584	     35.22336170	     11.15480751	     66.00922851
      1.58333330	    -19.41802678	      4.31881663	     -4.84020573	      0.45497289	      1.06701687	     -0.27146903	     49.60269527	     -0.36825856	      8.55379251	     72.00804702	      1.25677751	     49.68270837	     -5.88978502	     -7.49999987	     47.17862177	     -0.28296864	     -4.42356382	     70.73719154	      1.23459690	     47.53479162	      2.81368469	     -7.49999987	    -32.63148759	     -5.86665987	     -0.56144194	      8.88695254	    -17.82703722	     42.38574823	     15.30597455	     60.25848694	      0.82670820	    -12.67782899	     15.58289454	      8.03777138	     76.97365066
      1.60000000	    -20.17146010	      4.36127116	     -4.90831265	      0.46294224	      1.05779498	     -0.26883822	     50.68752673	      0.09065714	      8.93764570	     73.93033375	      1.29032774	     49.70785574	     -7.16679632	     -7.49999987	     48.31046836	     -0.48225508	     -4.55748078	     73.43515499	      1.28168524	     48.21846806	      2.48085195	     -7.49999987	    -32.57294308	     -5.59796918	     -1.00900445	     14.87173118	    -17.51584431	     39.52482983	     15.85732731	     59.72253661	      5.71238107	    -13.31450884	     14.49717928	      8.18914665	     74.70371535
      1.61666670	    -20.39595163	      4.34502517	     -5.02710642	      0.48445399	      1.05523446	     -0.26609883	     50.35177940	      0.66394355	      9.45056511	     74.88047131	      1.30691077	     49.71916576	     -8.66995463	     -7.49999987	     47.86932094	     -0.52265475	     -4.57961785	     74.95769875	      1.30825864	     48.53626684	      2.30326890	     -7.49999987	    -31.76599399	     -5.57039785	     -0.27458221	     19.24610656	    -16.52991958	     29.94258216	     17.77167898	     65.86162034	     10.20569605	    -13.46254693	     10.90534450	      9.63740927	     71.75494864
      1.63333330	    -20.45695376	      4.20441298	     -5.07941404	      0.50068014	      1.05932998	     -0.25984672	     48.98758990	      1.23435715	      9.79593333	     74.64858667	      1.30286362	     49.70424731	    -10.53732588	     -7.49999987	     46.25008912	     -0.51900210	     -4.32086474	     74.80402541	      1.30557654	     48.56272474	      2.59482536	     -7.49999987	    -29.68094816	     -5.65145275	      0.80173505	     25.17932300	    -15.65419200	     29.02761831	     20.13066583	     65.80744257	     15.13737367	    -14.10879747	     10.85874277	     12.69734711	     71.58952579
